PathFileType	4	(X/Y/Z)	s06c0402.trc
DataRate	CameraRate	NumFrames	NumMarkers	Units	OrigDataRate	OrigDataStartFrame	OrigNumFrames
200	200	4	48	mm	200	750	2000
Frame#	Time	racr			lacr			c7			jug			rlel			rdr			llel			ldr			s2			lic			ric			lasi			rasi			rpsi			lpsi			rgt			lgt			rth1			rth2			rth3			rth4			rlfc			rmfc			rsh1			rsh2			rsh3			rsh4			rlmal			rcal			rtoe			rmt5			lth1			lth2			lth4			lth3			llfc			lmfc			llmal			lcal			lmt5			lsh1			lsh2			lsh3			lsh4			ltoe			SBIKE			LBIKE			RBIKE			
		X1	Y1	Z1	X2	Y2	Z2	X3	Y3	Z3	X4	Y4	Z4	X5	Y5	Z5	X6	Y6	Z6	X7	Y7	Z7	X8	Y8	Z8	X9	Y9	Z9	X10	Y10	Z10	X11	Y11	Z11	X12	Y12	Z12	X13	Y13	Z13	X14	Y14	Z14	X15	Y15	Z15	X16	Y16	Z16	X17	Y17	Z17	X18	Y18	Z18	X19	Y19	Z19	X20	Y20	Z20	X21	Y21	Z21	X22	Y22	Z22	X23	Y23	Z23	X24	Y24	Z24	X25	Y25	Z25	X26	Y26	Z26	X27	Y27	Z27	X28	Y28	Z28	X29	Y29	Z29	X30	Y30	Z30	X31	Y31	Z31	X32	Y32	Z32	X33	Y33	Z33	X34	Y34	Z34	X35	Y35	Z35	X36	Y36	Z36	X37	Y37	Z37	X38	Y38	Z38	X39	Y39	Z39	X40	Y40	Z40	X41	Y41	Z41	X42	Y42	Z42	X43	Y43	Z43	X44	Y44	Z44	X45	Y45	Z45	X46	Y46	Z46	X47	Y47	Z47	X48	Y48	Z48	
750	3.7500	723.701767	1295.293254	-37.641963	761.759666	1261.246207	-370.308900	750.862064	1390.992825	-202.155497	731.022832	1223.402621	-192.584716	554.775720	1090.856672	72.018899	683.530643	942.630227	-49.299681	568.303223	1103.175407	-512.152795	675.970967	933.212768	-423.487378	201.672601	1197.299517	-273.511748	381.225071	1123.078035	-406.559259	320.116003	1185.997278	-90.334541	381.421477	1067.852504	-364.501070	355.453419	1137.610214	-116.735995	236.081403	1235.661697	-246.522670	245.766196	1224.529938	-305.193450	306.193916	1127.307844	-45.569991	317.712677	1036.067888	-431.133188	411.449506	1049.392585	-40.123382	495.540532	1009.365881	-48.817785	539.771154	939.069713	-43.150202	511.243215	1033.703926	-70.194943	586.368301	845.912279	-67.969258	568.140263	822.099473	-180.004174	500.629447	759.155267	-41.302589	443.695900	696.851334	-58.017742	360.789039	664.454191	-55.129569	455.292466	680.815951	-94.447485	281.153313	623.719002	-56.803972	214.686854	644.980664	-104.788770	378.302205	422.733827	-105.613813	303.124529	485.217884	-34.784690	290.606703	914.221352	-446.444643	310.465207	829.375203	-444.523895	347.323916	828.043434	-436.239741	284.496533	744.092611	-434.611796	269.286049	627.602025	-411.649242	274.040972	610.185113	-293.881350	146.548409	283.801930	-379.732852	88.189072	307.521393	-331.310018	197.844435	141.775364	-405.107893	229.727151	526.043362	-426.170168	225.756992	441.017881	-408.067202	177.924301	366.710066	-395.831228	255.550749	436.632333	-382.550660	263.573182	85.047794	-345.688672	-156.549312	855.374423	-223.431494	-49.286986	79.597454	-415.567763	-49.359451	79.854297	-18.124608	
751	3.7550	724.072610	1293.047811	-36.136383	762.237223	1261.214580	-369.101549	752.192003	1390.156930	-200.002811	731.324777	1222.394170	-191.574301	554.176139	1089.236508	72.746634	683.114742	942.490503	-49.734507	569.367641	1103.311665	-511.783808	676.353315	932.816983	-423.539493	201.736603	1200.574926	-274.010483	381.118788	1125.462921	-406.510618	318.622205	1188.890721	-91.773962	380.785755	1070.156988	-364.509198	353.369661	1139.890195	-117.863837	236.446818	1238.959483	-247.285981	246.142705	1227.542649	-305.521492	305.163430	1131.618526	-46.179092	317.233147	1038.481825	-431.353329	409.713590	1053.181995	-40.503576	492.903556	1012.676541	-48.428031	536.825326	944.953196	-38.963352	509.347244	1037.377402	-69.827292	585.598615	849.221908	-67.200499	568.004246	826.436511	-180.235851	501.075197	760.503181	-40.727515	445.297807	697.013780	-57.739956	363.210824	663.151142	-54.800948	457.400991	681.575991	-94.005013	284.484710	620.362436	-56.480299	216.883840	639.015445	-104.411308	389.375111	423.617517	-105.703102	311.903275	482.810694	-34.573443	291.333606	916.115583	-446.358710	312.191765	831.498739	-444.847247	349.048863	830.545770	-436.299048	287.143085	745.924285	-435.477626	271.852614	629.419552	-411.958232	277.305466	611.413282	-294.337204	143.625596	288.428229	-380.014946	86.509979	314.409754	-331.359456	188.878333	144.219816	-405.099364	230.807762	528.958846	-426.424666	225.462213	443.983547	-408.223042	176.393235	370.454202	-396.066707	255.183696	439.038058	-382.822880	252.387226	85.036412	-345.742723	-156.624532	855.419000	-223.276701	-49.278661	79.683811	-415.550156	-49.359070	79.905096	-18.119806	
752	3.7600	724.505418	1290.756131	-34.652550	762.690841	1261.144943	-367.874304	753.469022	1389.360731	-198.079823	731.521115	1221.334922	-190.614335	553.949809	1087.423987	73.110719	682.782997	942.397773	-50.633482	570.278232	1103.510224	-511.459205	676.637649	932.638666	-423.518415	202.198037	1203.993123	-274.439229	380.825140	1128.104672	-406.507815	318.082234	1192.210181	-91.663933	380.091982	1072.448795	-364.979333	352.608614	1142.893566	-117.490161	236.632571	1242.439288	-247.559955	246.549150	1230.532091	-305.710568	304.223861	1135.991637	-46.721929	316.498604	1041.166050	-431.668630	407.588173	1056.642055	-40.493701	490.665730	1016.372271	-47.727125	535.202910	944.805980	-42.826785	506.895478	1040.279016	-69.680519	584.133535	852.080316	-66.277933	567.116203	829.937484	-180.315606	500.578004	761.660583	-40.154595	446.178346	696.776636	-57.064681	364.984073	661.235983	-54.257537	458.977742	681.354844	-92.999562	287.336166	615.825306	-56.244393	218.844466	632.017165	-103.867005	400.581340	424.013519	-105.192837	319.904142	479.764454	-34.363474	292.367151	918.225938	-446.138556	314.450574	833.885314	-445.081353	351.294062	833.412769	-436.263022	290.675055	747.909522	-436.221437	275.446738	631.494177	-412.259416	281.602288	613.162301	-294.758769	141.086035	293.604303	-380.244988	85.287418	321.717883	-331.378436	180.084242	147.317906	-405.008702	232.799119	532.133648	-426.595905	225.894791	447.369233	-408.213383	175.559352	374.656941	-396.245714	255.641573	441.781566	-382.947198	241.177287	85.672484	-345.610570	-156.830546	855.609073	-223.397832	-49.268613	79.811552	-415.518740	-49.361385	80.030892	-18.116499	
753	3.7650	724.827823	1288.553131	-33.333914	763.145391	1261.054401	-366.589169	754.570638	1388.588333	-196.083810	731.288813	1220.353131	-189.403875	555.013948	1085.561865	72.677285	682.713417	942.516181	-51.182798	571.000434	1103.767147	-511.157551	676.873455	932.620644	-423.568927	202.473505	1207.599775	-274.455249	380.435747	1130.773834	-406.681456	317.489051	1195.262465	-91.757757	379.203416	1074.934782	-365.477381	351.652544	1145.555659	-117.357453	237.231786	1246.065238	-247.794495	246.928539	1233.784442	-305.621976	303.383537	1140.249165	-47.311970	315.530811	1044.056591	-432.201853	405.327949	1059.914924	-40.538367	486.148951	1018.491038	-46.873377	531.899256	947.865786	-40.905057	505.151266	1042.926591	-69.266294	581.894067	854.119598	-64.858305	565.495258	832.455242	-180.114461	499.342044	762.010783	-38.740601	445.595773	695.861946	-56.120410	366.162836	658.434063	-53.504678	460.367421	680.148471	-91.578811	289.958599	610.388504	-55.722919	220.647303	623.970468	-103.049615	411.069772	423.775597	-104.796812	328.123438	475.869968	-33.940912	293.599635	920.441627	-445.925893	317.342058	836.566495	-445.023619	354.076010	836.799624	-436.035786	294.940200	750.108435	-436.764719	279.964133	633.767886	-412.336064	287.081862	615.331211	-295.159019	138.840763	299.209176	-380.292435	84.243469	329.347353	-331.303806	171.506262	151.122976	-404.703435	235.670927	535.519842	-426.691027	226.993609	450.774046	-407.710120	175.365035	379.236785	-396.342329	256.284382	444.457825	-381.599404	230.142779	87.017643	-345.613888	-156.857174	855.744109	-223.395221	-49.229267	79.959384	-415.489974	-49.336068	80.115633	-18.092744	
